<?xml version="1.0" encoding="utf-8"?>
<!-- Generator: Adobe Illustrator 19.2.1, SVG Export Plug-In . SVG Version: 6.00 Build 0)  -->
<svg version="1.1" id="Chevron_circled_right" xmlns="http://www.w3.org/2000/svg" xmlns:xlink="http://www.w3.org/1999/xlink"
	 x="0px" y="0px" viewBox="0 0 20 20" style="enable-background:new 0 0 20 20;" xml:space="preserve">
<style type="text/css">
	.st0{fill:#00838F;}
</style>
<path class="st0" d="M11,10L8.7,7.5C8.5,7.3,8.5,7,8.7,6.8c0.2-0.2,0.5-0.2,0.7,0l2.8,2.9c0.2,0.2,0.2,0.5,0,0.7l-2.8,2.9
	c-0.2,0.2-0.5,0.2-0.7,0c-0.2-0.2-0.2-0.5,0-0.7L11,10z M10,0.4c5.3,0,9.6,4.3,9.6,9.6c0,5.3-4.3,9.6-9.6,9.6S0.4,15.3,0.4,10
	C0.4,4.7,4.7,0.4,10,0.4z M10,18.4c4.6,0,8.4-3.7,8.4-8.4S14.6,1.6,10,1.6c-4.6,0-8.4,3.7-8.4,8.4C1.6,14.6,5.4,18.4,10,18.4z"/>
</svg>
