<?xml version="1.0" encoding="utf-8"?>
<!-- Generator: Adobe Illustrator 19.2.1, SVG Export Plug-In . SVG Version: 6.00 Build 0)  -->
<svg version="1.1" id="Layer_1" xmlns="http://www.w3.org/2000/svg" xmlns:xlink="http://www.w3.org/1999/xlink" x="0px" y="0px"
	 viewBox="0 0 43.2 43.5" style="enable-background:new 0 0 43.2 43.5;" xml:space="preserve">
<style type="text/css">
	.st0{fill:#FFFFFF;}
	.st1{fill:none;stroke:#999999;stroke-miterlimit:10;}
	.st2{fill:#FFFFFF;stroke:#999999;stroke-miterlimit:10;}
	.st3{fill:#999999;}
</style>
<circle class="st0" cx="21.6" cy="21.6" r="20.9"/>
<g>
	<line class="st1" x1="57.4" y1="11.9" x2="63.7" y2="5.8"/>
	<g>
		<rect x="49.1" y="12" class="st2" width="16.6" height="16.6"/>
		<line class="st1" x1="57.4" y1="11.9" x2="51.1" y2="5.8"/>
		<circle class="st3" cx="51.1" cy="5.8" r="1.1"/>
		<circle class="st3" cx="63.7" cy="5.8" r="1.1"/>
		<rect x="51.1" y="14.1" class="st2" width="12.6" height="12.6"/>
	</g>
</g>
<g>
	<path class="st3" d="M31.6,15.9v14.8c0,0.7-0.6,1.1-1.4,1.7c-0.6,0.4-1.4-0.1-1.4-0.8c0,0,0-14.2,0-14.5c0-0.3-0.1-0.6-0.5-0.8
		s-11.1-5.8-11.1-5.8c-0.2-0.1-0.9-0.5-1.9,0c-1,0.5-1.5,1-1.6,1.3l11.7,6.4c0.3,0.2,0.5,0.4,0.5,0.7v15.5c0,0.3-0.2,0.7-0.5,0.8
		c-0.1,0.1-0.3,0.1-0.5,0.1c-0.2,0-0.4,0-0.6-0.1C24,35,13.2,28.4,12.5,28c-0.3-0.2-0.7-0.6-0.8-0.9l-0.2-14.8c0-0.3,0-0.8,0.4-1.5
		c1-1.6,4.5-3.3,6.3-2.4l12.9,6.5C31.4,15.1,31.6,15.4,31.6,15.9z"/>
</g>
</svg>
