<?xml version="1.0" encoding="utf-8"?>
<!-- Generator: Adobe Illustrator 19.2.1, SVG Export Plug-In . SVG Version: 6.00 Build 0)  -->
<svg version="1.1" id="Layer_1" xmlns="http://www.w3.org/2000/svg" xmlns:xlink="http://www.w3.org/1999/xlink" x="0px" y="0px"
	 viewBox="0 0 43.2 43.5" style="enable-background:new 0 0 43.2 43.5;" xml:space="preserve">
<style type="text/css">
	.st0{fill:#FFFFFF;}
	.st1{fill:none;stroke:#999999;stroke-miterlimit:10;}
	.st2{fill:#FFFFFF;stroke:#999999;stroke-miterlimit:10;}
	.st3{fill:#999999;}
</style>
<circle class="st0" cx="21.6" cy="21.6" r="20.9"/>
<g>
	<line class="st1" x1="57.4" y1="11.9" x2="63.7" y2="5.8"/>
	<g>
		<rect x="49.1" y="12" class="st2" width="16.6" height="16.6"/>
		<line class="st1" x1="57.4" y1="11.9" x2="51.1" y2="5.8"/>
		<circle class="st3" cx="51.1" cy="5.8" r="1.1"/>
		<circle class="st3" cx="63.7" cy="5.8" r="1.1"/>
		<rect x="51.1" y="14.1" class="st2" width="12.6" height="12.6"/>
	</g>
</g>
<circle class="st3" cx="21.6" cy="21.6" r="14.2"/>
<circle class="st0" cx="21.6" cy="12.8" r="4.2"/>
<ellipse transform="matrix(0.7071 -0.7071 0.7071 0.7071 -15.4474 20.0616)" class="st0" cx="16.5" cy="28.7" rx="4.2" ry="4.2"/>
<ellipse transform="matrix(0.7071 -0.7071 0.7071 0.7071 -12.4346 27.3352)" class="st0" cx="26.8" cy="28.7" rx="4.2" ry="4.2"/>
<circle class="st0" cx="30.1" cy="19.2" r="4.2"/>
<circle class="st0" cx="13.1" cy="19.2" r="4.2"/>
<circle class="st0" cx="21.6" cy="21.1" r="2.3"/>
</svg>
