<?xml version="1.0" encoding="utf-8"?>
<!-- Generator: Adobe Illustrator 19.2.1, SVG Export Plug-In . SVG Version: 6.00 Build 0)  -->
<svg version="1.1" id="Layer_1" xmlns="http://www.w3.org/2000/svg" xmlns:xlink="http://www.w3.org/1999/xlink" x="0px" y="0px"
	 viewBox="0 0 43.2 43.5" style="enable-background:new 0 0 43.2 43.5;" xml:space="preserve">
<style type="text/css">
	.st0{fill:#FFFFFF;}
	.st1{fill:#91A1BA;}
</style>
<circle class="st0" cx="21.6" cy="21.6" r="20.9"/>
<circle class="st0" cx="21.6" cy="12.8" r="4.2"/>
<ellipse transform="matrix(0.7071 -0.7071 0.7071 0.7071 -15.462 20.0836)" class="st0" cx="16.5" cy="28.7" rx="4.2" ry="4.2"/>
<ellipse transform="matrix(0.7071 -0.7071 0.7071 0.7071 -12.4396 27.3689)" class="st0" cx="26.8" cy="28.7" rx="4.2" ry="4.2"/>
<circle class="st0" cx="30.1" cy="19.2" r="4.2"/>
<circle class="st0" cx="13.1" cy="19.2" r="4.2"/>
<circle class="st0" cx="21.6" cy="21.1" r="2.3"/>
<path class="st1" d="M30.8,9.9H12.6c-1.3,0-2.4,1.1-2.4,2.4v19.1c0,1.3,1.1,2.4,2.4,2.4h18.2c1.3,0,2.4-1.1,2.4-2.4V12.2
	C33.2,10.9,32.1,9.9,30.8,9.9z M14.4,31.8h-3v-3h3V31.8z M14.4,26.1h-3v-3h3V26.1z M14.4,20.4h-3v-3h3V20.4z M14.4,14.7h-3v-3h3
	V14.7z M27.5,31.8H16v-8.7h11.5V31.8z M27.5,20.4H16v-8.7h11.5V20.4z M32,31.8h-3v-3h3V31.8z M32,26.1h-3v-3h3V26.1z M32,20.4h-3v-3
	h3V20.4z M32,14.7h-3v-3h3V14.7z"/>
</svg>
