<?xml version="1.0" encoding="utf-8"?>
<!-- Generator: Adobe Illustrator 19.2.1, SVG Export Plug-In . SVG Version: 6.00 Build 0)  -->
<svg version="1.1" id="Facebook" xmlns="http://www.w3.org/2000/svg" xmlns:xlink="http://www.w3.org/1999/xlink" x="0px" y="0px"
	 viewBox="0 0 20 20" style="enable-background:new 0 0 20 20;" xml:space="preserve">
<style type="text/css">
	.st0{fill:#39BDC4;}
	.st1{fill:#00838F;}
</style>
<path class="st0" d="M16.9,1.3h-14c-1.1,0-2,0.9-2,2v14c0,1.1,0.9,2,2,2h7h3h4c1.1,0,2-0.9,2-2v-14C18.9,2.2,18,1.3,16.9,1.3z"/>
<g>
	<path class="st1" d="M15.4,3.3H4.5C3.6,3.3,2.9,4,2.9,4.8v10.9c0,0.9,0.7,1.6,1.6,1.6h10.9c0.9,0,1.6-0.7,1.6-1.6V4.8
		C16.9,4,16.2,3.3,15.4,3.3z M9.9,14.5c2.4,0,4.3-1.9,4.3-4.3c0-0.3,0-0.5-0.1-0.8h1.2V15c0,0.3-0.2,0.5-0.5,0.5H5
		c-0.3,0-0.5-0.2-0.5-0.5V9.5h1.2c0,0.2-0.1,0.5-0.1,0.8C5.6,12.6,7.6,14.5,9.9,14.5z M7.2,10.2c0-1.5,1.2-2.7,2.7-2.7
		s2.7,1.2,2.7,2.7s-1.2,2.7-2.7,2.7C8.5,12.9,7.2,11.7,7.2,10.2z M14.9,7.1h-1.3c-0.3,0-0.5-0.2-0.5-0.5V5.3c0-0.3,0.2-0.5,0.5-0.5
		h1.3c0.3,0,0.5,0.2,0.5,0.5v1.3C15.4,6.9,15.2,7.1,14.9,7.1z"/>
</g>
</svg>
