<?xml version="1.0" encoding="utf-8"?>
<!-- Generator: Adobe Illustrator 19.2.1, SVG Export Plug-In . SVG Version: 6.00 Build 0)  -->
<svg version="1.1" id="Facebook" xmlns="http://www.w3.org/2000/svg" xmlns:xlink="http://www.w3.org/1999/xlink" x="0px" y="0px"
	 viewBox="0 0 20 20" style="enable-background:new 0 0 20 20;" xml:space="preserve">
<style type="text/css">
	.st0{fill:#AFD0C9;}
</style>
<g>
	<path class="st0" d="M9.9,12.7c1.4,0,2.5-1.1,2.5-2.5c0-1.4-1.1-2.5-2.5-2.5c-1.4,0-2.5,1.1-2.5,2.5C7.4,11.6,8.6,12.7,9.9,12.7z"
		/>
	<path class="st0" d="M13.9,10.2c0,2.2-1.8,4-4,4c-2.1,0-4-1.8-4-3.9C5.9,10.1,6,9.8,6,9.6H4.9v5.1c0,0.3,0.2,0.5,0.5,0.5h9
		c0.3,0,0.5-0.2,0.5-0.5V9.5h-1.1C13.9,9.7,13.9,9.9,13.9,10.2z"/>
	<path class="st0" d="M16.9,1.3h-14c-1.1,0-2,0.9-2,2v14c0,1.1,0.9,2,2,2h7h3h4c1.1,0,2-0.9,2-2v-14C18.9,2.2,18,1.3,16.9,1.3z
		 M16.5,15.3c0,0.8-0.7,1.5-1.5,1.5H4.9c-0.8,0-1.5-0.7-1.5-1.5V5.2c0-0.7,0.7-1.4,1.5-1.4H15c0.8,0,1.4,0.6,1.5,1.4V15.3z"/>
	<path class="st0" d="M14.5,5.2h-1.2c-0.3,0-0.5,0.2-0.5,0.5v1.1c0,0.3,0.2,0.5,0.5,0.5h1.2c0.3,0,0.5-0.2,0.5-0.4V5.7
		C15,5.4,14.8,5.2,14.5,5.2z"/>
</g>
</svg>
