<?xml version="1.0" encoding="utf-8"?>
<!-- Generator: Adobe Illustrator 19.2.1, SVG Export Plug-In . SVG Version: 6.00 Build 0)  -->
<svg version="1.1" id="Facebook" xmlns="http://www.w3.org/2000/svg" xmlns:xlink="http://www.w3.org/1999/xlink" x="0px" y="0px"
	 viewBox="0 0 20 20" style="enable-background:new 0 0 20 20;" xml:space="preserve">
<style type="text/css">
	.st0{fill:#39BDC4;}
	.st1{fill:#00838F;}
</style>
<path class="st0" d="M16.9,1.3h-14c-1.1,0-2,0.9-2,2v14c0,1.1,0.9,2,2,2h7h3h4c1.1,0,2-0.9,2-2v-14C18.9,2.2,18,1.3,16.9,1.3z"/>
<g>
	<path class="st1" d="M15,3.8H4.9c-0.8,0-1.5,0.7-1.5,1.4v10.1c0,0.8,0.7,1.5,1.5,1.5H15c0.8,0,1.5-0.7,1.5-1.5V5.2
		C16.4,4.4,15.8,3.8,15,3.8z M9.9,14.2c2.2,0,4-1.8,4-4c0-0.3,0-0.5-0.1-0.7h1.1v5.2c0,0.3-0.2,0.5-0.5,0.5H5.4
		c-0.3,0-0.5-0.2-0.5-0.5V9.6H6c0,0.2-0.1,0.5-0.1,0.7C5.9,12.4,7.8,14.2,9.9,14.2z M7.4,10.2c0-1.4,1.1-2.5,2.5-2.5
		s2.5,1.1,2.5,2.5s-1.1,2.5-2.5,2.5C8.6,12.7,7.4,11.6,7.4,10.2z M14.5,7.3h-1.2c-0.3,0-0.5-0.2-0.5-0.5V5.7c0-0.3,0.2-0.5,0.5-0.5
		h1.2c0.3,0,0.5,0.2,0.5,0.5v1.2C15,7.1,14.8,7.3,14.5,7.3z"/>
</g>
</svg>
