<?xml version="1.0" encoding="utf-8"?>
<!-- Generator: Adobe Illustrator 19.2.1, SVG Export Plug-In . SVG Version: 6.00 Build 0)  -->
<svg version="1.1" id="Menu" xmlns="http://www.w3.org/2000/svg" xmlns:xlink="http://www.w3.org/1999/xlink" x="0px" y="0px"
	 viewBox="0 0 14 10" style="enable-background:new 0 0 14 10;" xml:space="preserve">
<style type="text/css">
	.st0{fill:#383838;}
</style>
<path class="st0" d="M13.4,4H0.6C0,4,0,4.4,0,5c0,0.6,0,1,0.6,1h12.8C14,6,14,5.6,14,5S14,4,13.4,4z M13.4,8H0.6C0,8,0,8.4,0,9
	c0,0.6,0,1,0.6,1h12.8C14,10,14,9.6,14,9S14,8,13.4,8z M0.6,2h12.8C14,2,14,1.6,14,1s0-1-0.6-1H0.6C0,0,0,0.4,0,1S0,2,0.6,2z"/>
</svg>
