<?xml version="1.0" encoding="utf-8"?>
<!-- Generator: Adobe Illustrator 19.2.1, SVG Export Plug-In . SVG Version: 6.00 Build 0)  -->
<svg version="1.1" id="Facebook" xmlns="http://www.w3.org/2000/svg" xmlns:xlink="http://www.w3.org/1999/xlink" x="0px" y="0px"
	 viewBox="0 0 20 20" style="enable-background:new 0 0 20 20;" xml:space="preserve">
<style type="text/css">
	.st0{fill:#39BDC4;}
	.st1{fill:#00838F;}
</style>
<path class="st0" d="M16.9,1h-14c-1.1,0-2,0.9-2,2v14c0,1.1,0.9,2,2,2h7h3h4c1.1,0,2-0.9,2-2V3C18.9,1.9,18,1,16.9,1z"/>
<path class="st1" d="M9,12.2c-0.3,1.9-0.8,3.7-2.1,4.6C6.5,14,7.4,11.9,7.9,9.6C7.1,8.3,8,5.6,9.6,6.2c2,0.8-1.8,4.9,0.8,5.4
	c2.6,0.5,3.8-4.6,2.1-6.3c-2.4-2.4-6.9-0.1-6.4,3.4c0.2,0.9,1,1.1,0.3,2.3c-1.5-0.3-2-1.5-1.9-3.2C4.7,5.2,7,3.4,9.2,3.2
	c2.9-0.3,5.5,1,6,3.8c0.4,3.1-1.3,6.3-4.3,6.1C10,13,9.6,12.6,9,12.2z"/>
</svg>
