<?xml version="1.0" encoding="utf-8"?>
<!-- Generator: Adobe Illustrator 19.2.1, SVG Export Plug-In . SVG Version: 6.00 Build 0)  -->
<svg version="1.1" id="Facebook" xmlns="http://www.w3.org/2000/svg" xmlns:xlink="http://www.w3.org/1999/xlink" x="0px" y="0px"
	 viewBox="0 0 20 20" style="enable-background:new 0 0 20 20;" xml:space="preserve">
<style type="text/css">
	.st0{fill:#39BDC4;}
	.st1{fill:#00838F;}
</style>
<path class="st0" d="M16.9,1h-14c-1.1,0-2,0.9-2,2v14c0,1.1,0.9,2,2,2h7h3h4c1.1,0,2-0.9,2-2V3C18.9,1.9,18,1,16.9,1z"/>
<path class="st1" d="M8.8,12.6c-0.4,2.2-0.9,4.3-2.5,5.4C5.9,14.7,7,12.2,7.6,9.5c-1-1.5,0.1-4.6,2-3.9c2.4,0.9-2.1,5.7,0.9,6.3
	c3.1,0.6,4.4-5.4,2.5-7.4c-2.8-2.8-8.1-0.1-7.5,4c0.2,1,1.2,1.3,0.4,2.7c-1.8-0.4-2.3-1.8-2.2-3.7C3.8,4.4,6.5,2.3,9.1,2
	c3.4-0.4,6.5,1.2,7,4.4c0.5,3.6-1.5,7.4-5.1,7.2C10,13.5,9.6,13,8.8,12.6z"/>
</svg>
