<?xml version="1.0" encoding="utf-8"?>
<!-- Generator: Adobe Illustrator 19.2.1, SVG Export Plug-In . SVG Version: 6.00 Build 0)  -->
<svg version="1.1" id="Layer_1" xmlns="http://www.w3.org/2000/svg" xmlns:xlink="http://www.w3.org/1999/xlink" x="0px" y="0px"
	 viewBox="0 0 100 79.7" style="enable-background:new 0 0 100 79.7;" xml:space="preserve">
<style type="text/css">
	.st0{opacity:0.88;}
	.st1{fill:#F4F4F4;}
</style>
<g class="st0">
	<path class="st1" d="M28.2,0h12.6c-8,9-14,17.2-17.7,24.5s-5.7,14.2-5.7,20.8c0,1.9,0,3.3,0.1,4.2s0.2,1.7,0.5,2.5h18.8
		c1.2,1.9,2.2,3.7,2.8,5.4s0.9,3.3,0.9,5c0,5.1-1.6,9.2-4.9,12.5s-7.5,4.9-12.8,4.9c-6.9,0-12.4-2.5-16.6-7.4
		C2.1,67.4,0,60.8,0,52.6c0-8.5,2.3-17.2,7-26S18.8,8.9,28.2,0z M87.4,0H100c-8,9-14,17.2-17.8,24.5s-5.7,14.2-5.7,20.8
		c0,1.9,0.1,3.3,0.1,4.2c0.1,0.9,0.2,1.7,0.4,2.5h19.1c1.3,1.9,2.3,3.7,2.9,5.4s0.9,3.3,0.9,5c0,5.1-1.7,9.2-5,12.5
		s-7.5,4.9-12.7,4.9c-7,0-12.6-2.5-16.9-7.4s-6.4-11.5-6.4-19.8c0-8.5,2.4-17.2,7.1-26S78,8.9,87.4,0z"/>
</g>
</svg>
