<?xml version="1.0" encoding="utf-8"?>
<!-- Generator: Adobe Illustrator 19.2.1, SVG Export Plug-In . SVG Version: 6.00 Build 0)  -->
<svg version="1.1" id="Facebook" xmlns="http://www.w3.org/2000/svg" xmlns:xlink="http://www.w3.org/1999/xlink" x="0px" y="0px"
	 viewBox="0 0 34.3 66.8" style="enable-background:new 0 0 34.3 66.8;" xml:space="preserve">
<style type="text/css">
	.st0{fill:#55ACEE;}
	.st1{fill:#C92228;}
	.st2{fill:#3B5998;}
	.st3{fill:#999999;}
</style>
<path class="st0" d="M16,24.4H2c-1.1,0-2,0.9-2,2v14c0,1.1,0.9,2,2,2h7h3h4c1.1,0,2-0.9,2-2v-14C18,25.3,17.1,24.4,16,24.4z
	 M14.3,30.6c0,0.1,0,0.3,0,0.3c0,3.7-2.8,7.9-7.9,7.9c-1.6,0-3-0.4-4.2-1.2c0.3,0,0.4,0,0.7,0c1.3,0,2.5-0.4,3.5-1.2
	c-1.2,0-2.2-0.9-2.6-1.9c0.2,0,0.3,0.1,0.5,0.1c0.3,0,0.5,0,0.7-0.1c-1.2-0.3-2.2-1.5-2.2-2.8c0.3,0.2,0.8,0.4,1.3,0.4
	c-0.8-0.5-1.3-1.4-1.3-2.3c0-0.5,0.2-1,0.3-1.4c1.4,1.6,3.5,2.8,5.7,2.9c0-0.3,0-0.4,0-0.7c0-1.6,1.2-2.8,2.8-2.8
	c0.8,0,1.6,0.3,2.1,0.9c0.6-0.1,1.2-0.3,1.7-0.7c-0.2,0.7-0.7,1.2-1.2,1.6c0.6-0.1,1.1-0.3,1.6-0.4C15.4,29.8,14.9,30.2,14.3,30.6z"
	/>
<path class="st1" d="M16,48.8H2c-1.1,0-2,0.9-2,2v14c0,1.1,0.9,2,2,2h7h3h4c1.1,0,2-0.9,2-2v-14C18,49.7,17.1,48.8,16,48.8z
	 M10,60.9c-0.9-0.1-1.3-0.5-1.9-0.9c-0.3,1.9-0.8,3.7-2.1,4.6c-0.4-2.8,0.5-4.9,1-7.2c-0.8-1.3,0.1-4,1.7-3.4c2,0.8-1.8,4.9,0.8,5.4
	s3.8-4.6,2.1-6.3c-2.4-2.4-6.9-0.1-6.4,3.4c0.2,0.9,1,1.1,0.3,2.3c-1.5-0.3-2-1.5-1.9-3.2C3.8,53,6.1,51.2,8.3,51
	c2.9-0.3,5.5,1,6,3.8C14.7,57.9,13,61.1,10,60.9z"/>
<g>
	<path class="st2" d="M16,0.1H2c-1.1,0-2,0.9-2,2v14c0,1.1,0.9,2,2,2h7v-7H7V8.6h2v-2c0-2.2,1.2-3.7,3.8-3.7h1.8v2.6h-1.2
		c-1,0-1.4,0.7-1.4,1.4v1.7h2.6L14,11.1h-2v7h4c1.1,0,2-0.9,2-2v-14C18,1,17.1,0.1,16,0.1z"/>
</g>
<g>
	<defs>
		<circle id="SVGID_1_" cx="148.7" cy="9.6" r="6.8"/>
	</defs>
	<clipPath id="SVGID_2_">
		<use xlink:href="#SVGID_1_"  style="overflow:visible;"/>
	</clipPath>
	<g transform="matrix(1 0 0 1 0 0)" style="clip-path:url(#SVGID_2_);">
		
			<image style="overflow:visible;" width="1778" height="1000" xlink:href="../../../../../../Desktop/facebookreactions_5f2de47703119f56ef5cfc97dfe559b4.nbcnews-ux-2880-1000.png"  transform="matrix(0.1113 0 0 0.1113 113.7045 -46.097)">
		</image>
	</g>
</g>
<g>
	<defs>
		<circle id="SVGID_3_" cx="169.1" cy="9.4" r="6.8"/>
	</defs>
	<clipPath id="SVGID_4_">
		<use xlink:href="#SVGID_3_"  style="overflow:visible;"/>
	</clipPath>
	<g transform="matrix(1 0 0 1 0 0)" style="clip-path:url(#SVGID_4_);">
		
			<image style="overflow:visible;" width="1778" height="1000" xlink:href="../../../../../../Desktop/facebookreactions_5f2de47703119f56ef5cfc97dfe559b4.nbcnews-ux-2880-1000.png"  transform="matrix(0.1113 0 0 0.1113 112.8773 -46.2884)">
		</image>
	</g>
</g>
<g>
	<defs>
		<circle id="SVGID_5_" cx="189.5" cy="9.3" r="6.8"/>
	</defs>
	<clipPath id="SVGID_6_">
		<use xlink:href="#SVGID_5_"  style="overflow:visible;"/>
	</clipPath>
	<g transform="matrix(1 0 0 1 0 0)" style="clip-path:url(#SVGID_6_);">
		
			<image style="overflow:visible;" width="1778" height="1000" xlink:href="../../../../../../Desktop/facebookreactions_5f2de47703119f56ef5cfc97dfe559b4.nbcnews-ux-2880-1000.png"  transform="matrix(0.1113 0 0 0.1113 112.1382 -46.5272)">
		</image>
	</g>
</g>
<g>
	<defs>
		<circle id="SVGID_7_" cx="271.8" cy="9.2" r="6.8"/>
	</defs>
	<clipPath id="SVGID_8_">
		<use xlink:href="#SVGID_7_"  style="overflow:visible;"/>
	</clipPath>
	<g transform="matrix(1 0 0 1 0 0)" style="clip-path:url(#SVGID_8_);">
		
			<image style="overflow:visible;" width="1778" height="1000" xlink:href="../../../../../../Desktop/facebookreactions_5f2de47703119f56ef5cfc97dfe559b4.nbcnews-ux-2880-1000.png"  transform="matrix(0.1113 0 0 0.1113 108.5534 -46.3852)">
		</image>
	</g>
</g>
<g>
	<defs>
		<circle id="SVGID_9_" cx="250.8" cy="9.1" r="6.8"/>
	</defs>
	<clipPath id="SVGID_10_">
		<use xlink:href="#SVGID_9_"  style="overflow:visible;"/>
	</clipPath>
	<g transform="matrix(1 0 0 1 0 0)" style="clip-path:url(#SVGID_10_);">
		
			<image style="overflow:visible;" width="1778" height="1000" xlink:href="../../../../../../Desktop/facebookreactions_5f2de47703119f56ef5cfc97dfe559b4.nbcnews-ux-2880-1000.png"  transform="matrix(0.1113 0 0 0.1113 108.7227 -46.9383)">
		</image>
	</g>
</g>
<g>
	<defs>
		<circle id="SVGID_11_" cx="230.4" cy="9.7" r="6.8"/>
	</defs>
	<clipPath id="SVGID_12_">
		<use xlink:href="#SVGID_11_"  style="overflow:visible;"/>
	</clipPath>
	<g transform="matrix(1 0 0 1 0 0)" style="clip-path:url(#SVGID_12_);">
		
			<image style="overflow:visible;" width="1778" height="1000" xlink:href="../../../../../../Desktop/facebookreactions_5f2de47703119f56ef5cfc97dfe559b4.nbcnews-ux-2880-1000.png"  transform="matrix(0.1113 0 0 0.1113 109.858 -45.9744)">
		</image>
	</g>
</g>
<g>
	<defs>
		<circle id="SVGID_13_" cx="210" cy="9.5" r="6.8"/>
	</defs>
	<clipPath id="SVGID_14_">
		<use xlink:href="#SVGID_13_"  style="overflow:visible;"/>
	</clipPath>
	<g transform="matrix(1 0 0 1 0 0)" style="clip-path:url(#SVGID_14_);">
		
			<image style="overflow:visible;" width="1778" height="1000" xlink:href="../../../../../../Desktop/facebookreactions_5f2de47703119f56ef5cfc97dfe559b4.nbcnews-ux-2880-1000.png"  transform="matrix(0.1113 0 0 0.1113 110.4869 -46.3357)">
		</image>
	</g>
</g>
<g>
	<path d="M137.8,27.7V32l7-6.7l-7-6.6v4c-8.8,0-11,9.7-11,9.7C129.2,28.1,133,27.7,137.8,27.7z"/>
</g>
<g>
	<path class="st3" d="M19.4,18.1v-0.4l0.6-0.5c1.3-1.3,1.9-1.9,1.9-2.7c0-0.5-0.3-1-1-1c-0.5,0-0.9,0.2-1.1,0.4l-0.2-0.5
		c0.4-0.3,0.9-0.5,1.5-0.5c1.1,0,1.6,0.8,1.6,1.5c0,1-0.7,1.7-1.8,2.8l-0.4,0.4v0h2.3v0.6H19.4z"/>
	<path class="st3" d="M23.5,18.1v-0.4l0.6-0.5c1.3-1.3,1.9-1.9,1.9-2.7c0-0.5-0.3-1-1-1c-0.5,0-0.9,0.2-1.1,0.4l-0.2-0.5
		c0.4-0.3,0.9-0.5,1.5-0.5c1.1,0,1.6,0.8,1.6,1.5c0,1-0.7,1.7-1.8,2.8l-0.4,0.4v0h2.3v0.6H23.5z"/>
	<path class="st3" d="M27.5,16.7c0-0.7,0.4-1.1,1-1.4l0,0c-0.6-0.3-0.8-0.7-0.8-1.2c0-0.8,0.7-1.4,1.6-1.4c1,0,1.5,0.6,1.5,1.3
		c0,0.4-0.2,0.9-0.9,1.2v0c0.6,0.3,1,0.7,1,1.3c0,0.9-0.8,1.5-1.8,1.5C28.2,18.1,27.5,17.5,27.5,16.7z M30.3,16.7
		c0-0.6-0.4-0.9-1.1-1.1c-0.6,0.2-0.9,0.6-0.9,1.1c0,0.5,0.4,1,1,1C29.9,17.6,30.3,17.2,30.3,16.7z M28.4,14.1c0,0.5,0.4,0.8,1,1
		c0.4-0.2,0.8-0.5,0.8-0.9c0-0.4-0.2-0.8-0.9-0.8C28.7,13.3,28.4,13.7,28.4,14.1z"/>
</g>
<g>
	<path class="st3" d="M22.4,37.7c-0.1,0-0.3,0-0.5,0c-1.1,0.2-1.7,1-1.8,1.8h0c0.2-0.3,0.7-0.6,1.3-0.6c0.9,0,1.6,0.7,1.6,1.7
		c0,1-0.6,1.8-1.7,1.8c-1.1,0-1.8-0.9-1.8-2.2c0-1,0.4-1.8,0.9-2.3c0.4-0.4,1-0.7,1.7-0.8c0.2,0,0.4,0,0.5,0V37.7z M22.2,40.7
		c0-0.7-0.4-1.2-1.1-1.2c-0.4,0-0.8,0.3-1,0.6c0,0.1-0.1,0.2-0.1,0.3c0,0.9,0.4,1.5,1.1,1.5C21.8,41.9,22.2,41.4,22.2,40.7z"/>
	<path class="st3" d="M25.7,42.4V41h-2.4v-0.5l2.3-3.3h0.8v3.2h0.7V41h-0.7v1.4H25.7z M25.7,40.4v-1.7c0-0.3,0-0.5,0-0.8h0
		c-0.2,0.3-0.3,0.5-0.4,0.8L24,40.4v0H25.7z"/>
</g>
<g>
	<path class="st3" d="M19.3,65.4c0-0.7,0.4-1.1,1-1.4l0,0c-0.6-0.3-0.8-0.7-0.8-1.2c0-0.8,0.7-1.4,1.6-1.4c1,0,1.5,0.6,1.5,1.3
		c0,0.4-0.2,0.9-0.9,1.2v0c0.6,0.3,1,0.7,1,1.3c0,0.9-0.8,1.5-1.8,1.5C20,66.8,19.3,66.1,19.3,65.4z M22.1,65.4
		c0-0.6-0.4-0.9-1.1-1.1c-0.6,0.2-0.9,0.6-0.9,1.1c0,0.5,0.4,1,1,1C21.7,66.3,22.1,65.9,22.1,65.4z M20.2,62.8c0,0.5,0.4,0.8,1,1
		c0.4-0.2,0.8-0.5,0.8-0.9c0-0.4-0.2-0.8-0.9-0.8C20.5,61.9,20.2,62.3,20.2,62.8z"/>
</g>
</svg>
