<?xml version="1.0" encoding="utf-8"?>
<!-- Generator: Adobe Illustrator 19.2.1, SVG Export Plug-In . SVG Version: 6.00 Build 0)  -->
<svg version="1.1" id="Facebook" xmlns="http://www.w3.org/2000/svg" xmlns:xlink="http://www.w3.org/1999/xlink" x="0px" y="0px"
	 viewBox="0 0 18 66.8" style="enable-background:new 0 0 18 66.8;" xml:space="preserve">
<style type="text/css">
	.st0{fill:#55ACEE;}
	.st1{fill:#C92228;}
	.st2{fill:#3B5998;}
</style>
<path class="st0" d="M16,24.4H2c-1.1,0-2,0.9-2,2v14c0,1.1,0.9,2,2,2h7h3h4c1.1,0,2-0.9,2-2v-14C18,25.3,17.1,24.4,16,24.4z
	 M14.3,30.6c0,0.1,0,0.3,0,0.3c0,3.7-2.8,7.9-7.9,7.9c-1.6,0-3-0.4-4.2-1.2c0.3,0,0.4,0,0.7,0c1.3,0,2.5-0.4,3.5-1.2
	c-1.2,0-2.2-0.9-2.6-1.9c0.2,0,0.3,0.1,0.5,0.1c0.3,0,0.5,0,0.7-0.1c-1.2-0.3-2.2-1.5-2.2-2.8c0.3,0.2,0.8,0.4,1.3,0.4
	c-0.8-0.5-1.3-1.4-1.3-2.3c0-0.5,0.2-1,0.3-1.4c1.4,1.6,3.5,2.8,5.7,2.9c0-0.3,0-0.4,0-0.7c0-1.6,1.2-2.8,2.8-2.8
	c0.8,0,1.6,0.3,2.1,0.9c0.6-0.1,1.2-0.3,1.7-0.7c-0.2,0.7-0.7,1.2-1.2,1.6c0.6-0.1,1.1-0.3,1.6-0.4C15.4,29.8,14.9,30.2,14.3,30.6z"
	/>
<path class="st1" d="M16,48.8H2c-1.1,0-2,0.9-2,2v14c0,1.1,0.9,2,2,2h7h3h4c1.1,0,2-0.9,2-2v-14C18,49.7,17.1,48.8,16,48.8z
	 M10,60.9c-0.9-0.1-1.3-0.5-1.9-0.9c-0.3,1.9-0.8,3.7-2.1,4.6c-0.4-2.8,0.5-4.9,1-7.2c-0.8-1.3,0.1-4,1.7-3.4c2,0.8-1.8,4.9,0.8,5.4
	s3.8-4.6,2.1-6.3c-2.4-2.4-6.9-0.1-6.4,3.4c0.2,0.9,1,1.1,0.3,2.3c-1.5-0.3-2-1.5-1.9-3.2C3.8,53,6.1,51.2,8.3,51
	c2.9-0.3,5.5,1,6,3.8C14.7,57.9,13,61.1,10,60.9z"/>
<g>
	<path class="st2" d="M16,0H2C0.9,0,0,0.9,0,2v14c0,1.1,0.9,2,2,2h7v-7H7V8.5h2v-2c0-2.2,1.2-3.7,3.8-3.7h1.8v2.6h-1.2
		c-1,0-1.4,0.7-1.4,1.4v1.7h2.6L14,11h-2v7h4c1.1,0,2-0.9,2-2V2C18,0.9,17.1,0,16,0z"/>
</g>
</svg>
