<?xml version="1.0" encoding="utf-8"?>
<!-- Generator: Adobe Illustrator 19.2.1, SVG Export Plug-In . SVG Version: 6.00 Build 0)  -->
<svg version="1.1" id="Facebook" xmlns="http://www.w3.org/2000/svg" xmlns:xlink="http://www.w3.org/1999/xlink" x="0px" y="0px"
	 viewBox="0 0 99 18.2" style="enable-background:new 0 0 99 18.2;" xml:space="preserve">
<style type="text/css">
	.st0{fill:#55ACEE;}
	.st1{fill:#C92228;}
	.st2{fill:#3B5998;}
</style>
<path class="st0" d="M56.4,0h-14c-1.1,0-2,0.9-2,2v14c0,1.1,0.9,2,2,2h7h3h4c1.1,0,2-0.9,2-2V2C58.4,0.9,57.5,0,56.4,0z M54.7,6.2
	c0,0.1,0,0.3,0,0.3c0,3.7-2.8,7.9-7.9,7.9c-1.6,0-3-0.4-4.2-1.2c0.3,0,0.4,0,0.7,0c1.3,0,2.5-0.4,3.5-1.2c-1.2,0-2.2-0.9-2.6-1.9
	c0.2,0,0.3,0.1,0.5,0.1c0.3,0,0.5,0,0.7-0.1c-1.2-0.3-2.2-1.5-2.2-2.8c0.3,0.2,0.8,0.4,1.3,0.4c-0.8-0.5-1.3-1.4-1.3-2.3
	c0-0.5,0.2-1,0.3-1.4c1.4,1.6,3.5,2.8,5.7,2.9c0-0.3,0-0.4,0-0.7c0-1.6,1.2-2.8,2.8-2.8c0.8,0,1.6,0.3,2.1,0.9
	c0.6-0.1,1.2-0.3,1.7-0.7c-0.2,0.7-0.7,1.2-1.2,1.6c0.6-0.1,1.1-0.3,1.6-0.4C55.8,5.4,55.3,5.8,54.7,6.2z"/>
<path class="st1" d="M96.8,0h-14c-1.1,0-2,0.9-2,2v14c0,1.1,0.9,2,2,2h7h3h4c1.1,0,2-0.9,2-2V2C98.8,0.9,97.9,0,96.8,0z M90.8,12.1
	c-0.9-0.1-1.3-0.5-1.9-0.9c-0.3,1.9-0.8,3.7-2.1,4.6c-0.4-2.8,0.5-4.9,1-7.2c-0.8-1.3,0.1-4,1.7-3.4c2,0.8-1.8,4.9,0.8,5.4
	s3.8-4.6,2.1-6.3C90,1.9,85.5,4.2,86,7.7c0.2,0.9,1,1.1,0.3,2.3c-1.5-0.3-2-1.5-1.9-3.2c0.2-2.6,2.5-4.4,4.7-4.6
	c2.9-0.3,5.5,1,6,3.8C95.5,9.1,93.8,12.3,90.8,12.1z"/>
<g>
	<path class="st2" d="M16,0H2C0.9,0,0,0.9,0,2v14c0,1.1,0.9,2,2,2h7v-7H7V8.5h2v-2c0-2.2,1.2-3.7,3.8-3.7h1.8v2.6h-1.2
		c-1,0-1.4,0.7-1.4,1.4v1.7h2.6L14,11h-2v7h4c1.1,0,2-0.9,2-2V2C18,0.9,17.1,0,16,0z"/>
</g>
</svg>
