<?xml version="1.0" encoding="utf-8"?>
<!-- Generator: Adobe Illustrator 19.2.1, SVG Export Plug-In . SVG Version: 6.00 Build 0)  -->
<svg version="1.1" id="Layer_1" xmlns="http://www.w3.org/2000/svg" xmlns:xlink="http://www.w3.org/1999/xlink" x="0px" y="0px"
	 viewBox="0 0 400 253" style="enable-background:new 0 0 400 253;" xml:space="preserve">
<style type="text/css">
	.st0{fill:#FAFAFA;}
	.st1{fill:none;}
	.st2{font-family:'Avenir-Book';}
	.st3{font-size:14px;}
	.st4{font-family:'ArcherPro-Book';}
	.st5{font-family:'Avenir-Heavy';}
	.st6{font-size:40px;}
	.st7{fill:#91A1BA;}
	.st8{fill:none;stroke:#000000;stroke-miterlimit:10;}
</style>
<rect class="st0" width="400" height="253"/>
<rect x="49.8" y="41.1" class="st1" width="310.8" height="149.5"/>
<text transform="matrix(1 0 0 1 49.8007 51.7055)"><tspan x="0" y="0" class="st2 st3">           </tspan><tspan x="42.8" y="0" class="st4 st3">hen Willow resurrects Buffy, she doesn’t  </tspan><tspan x="0" y="18" class="st4 st3">             come back numb, she comes back nuts! </tspan><tspan x="0" y="36" class="st4 st3">Racing to find a cure for their friend, the Scoobies </tspan><tspan x="0" y="54" class="st4 st3">quickly realize that they have no idea how to control </tspan><tspan x="0" y="72" class="st4 st3">or care for an insane Slayer, and must return to the </tspan><tspan x="0" y="90" class="st4 st3">person they’ve spent all summer ignoring and alien</tspan><tspan x="303.8" y="90" class="st4 st3">-</tspan><tspan x="0" y="108" class="st4 st3">ating, the one person they know with over a century </tspan><tspan x="0" y="126" class="st4 st3">of crazy under his belt... </tspan></text>
<rect x="49.8" y="38.6" class="st1" width="45" height="33.9"/>
<text transform="matrix(1 0 0 1 49.8009 68.8313)" class="st5 st6">W</text>
<rect x="217.9" y="198.7" class="st1" width="142.7" height="17.7"/>
<text transform="matrix(1 0 0 1 217.9477 209.2386)" class="st7 st2 st3">by BeneficialAddiction</text>
<g>
	<line class="st8" x1="385.8" y1="6.2" x2="393.6" y2="14"/>
	<line class="st8" x1="393.6" y1="6.2" x2="385.8" y2="14"/>
</g>
</svg>
