<?xml version="1.0" encoding="utf-8"?>
<!-- Generator: Adobe Illustrator 19.2.1, SVG Export Plug-In . SVG Version: 6.00 Build 0)  -->
<svg version="1.1" id="Layer_1" xmlns="http://www.w3.org/2000/svg" xmlns:xlink="http://www.w3.org/1999/xlink" x="0px" y="0px"
	 viewBox="0 0 43.2 43.5" style="enable-background:new 0 0 43.2 43.5;" xml:space="preserve">
<style type="text/css">
	.st0{fill:#FFFFFF;}
	.st1{fill:none;stroke:#91A1BA;stroke-miterlimit:10;}
	.st2{fill:#91A1BA;}
</style>
<circle class="st0" cx="21.6" cy="21.8" r="20.9"/>
<g>
	<line class="st1" x1="21.6" y1="14.4" x2="27.9" y2="8.3"/>
	<line class="st1" x1="21.6" y1="14.4" x2="15.3" y2="8.3"/>
	<circle class="st2" cx="15.3" cy="8.3" r="1.1"/>
	<circle class="st2" cx="27.9" cy="8.3" r="1.1"/>
	<path class="st2" d="M31.1,14.3h-19c-1.4,0-2.5,1.1-2.5,2.5v13.4c0,1.4,1.1,2.5,2.5,2.5h19c1.4,0,2.5-1.1,2.5-2.5V16.8
		C33.5,15.4,32.4,14.3,31.1,14.3z M27.7,28c0,1.4-1.1,2.5-2.5,2.5h-11c-1.4,0-2.5-1.1-2.5-2.5v-9c0-1.4,1.1-2.5,2.5-2.5h11
		c1.4,0,2.5,1.1,2.5,2.5V28z M30.7,26.8c-1.2,0-2.2-1-2.2-2.2s1-2.2,2.2-2.2s2.2,1,2.2,2.2S31.9,26.8,30.7,26.8z M30.7,21.4
		c-1.2,0-2.2-1-2.2-2.2c0-1.2,1-2.2,2.2-2.2s2.2,1,2.2,2.2C32.8,20.4,31.9,21.4,30.7,21.4z"/>
</g>
</svg>
