<?xml version="1.0" encoding="utf-8"?>
<!-- Generator: Adobe Illustrator 19.2.1, SVG Export Plug-In . SVG Version: 6.00 Build 0)  -->
<svg version="1.1" id="Facebook" xmlns="http://www.w3.org/2000/svg" xmlns:xlink="http://www.w3.org/1999/xlink" x="0px" y="0px"
	 viewBox="0 0 20 20" style="enable-background:new 0 0 20 20;" xml:space="preserve">
<style type="text/css">
	.st0{fill:#39BDC4;}
	.st1{fill:#00838F;}
</style>
<path class="st0" d="M16.9,1h-14c-1.1,0-2,0.9-2,2v14c0,1.1,0.9,2,2,2h7h3h4c1.1,0,2-0.9,2-2V3C18.9,1.9,18,1,16.9,1z"/>
<path class="st1" d="M16.1,6.8c0,0.1,0,0.3,0,0.4c0,4.3-3.2,9.2-9.2,9.2c-1.8,0-3.5-0.5-4.9-1.4c0.3,0,0.5,0,0.8,0
	c1.5,0,2.9-0.5,4-1.4c-1.4,0-2.6-1-3-2.2c0.2,0,0.4,0.1,0.6,0.1c0.3,0,0.6,0,0.8-0.1C3.8,11,2.7,9.7,2.7,8.1l0,0
	c0.4,0.2,0.9,0.4,1.5,0.4C3.3,7.9,2.7,6.9,2.7,5.8c0-0.6,0.2-1.1,0.4-1.6c1.6,1.9,4,3.2,6.6,3.4c0-0.3,0-0.5,0-0.8
	c0-1.8,1.4-3.2,3.2-3.2c0.9,0,1.8,0.4,2.4,1c0.7-0.1,1.4-0.4,2-0.8c-0.2,0.8-0.8,1.4-1.4,1.8c0.7-0.1,1.3-0.3,1.8-0.5
	C17.3,5.8,16.8,6.3,16.1,6.8z"/>
</svg>
