<?xml version="1.0" encoding="utf-8"?>
<!-- Generator: Adobe Illustrator 19.2.1, SVG Export Plug-In . SVG Version: 6.00 Build 0)  -->
<svg version="1.1" id="Facebook" xmlns="http://www.w3.org/2000/svg" xmlns:xlink="http://www.w3.org/1999/xlink" x="0px" y="0px"
	 viewBox="0 0 20 20" style="enable-background:new 0 0 20 20;" xml:space="preserve">
<style type="text/css">
	.st0{fill:#39BDC4;}
	.st1{fill:#00838F;}
</style>
<path class="st0" d="M16.9,1h-14c-1.1,0-2,0.9-2,2v14c0,1.1,0.9,2,2,2h7h3h4c1.1,0,2-0.9,2-2V3C18.9,1.9,18,1,16.9,1z"/>
<path class="st1" d="M15.2,7.2c0,0.1,0,0.3,0,0.3c0,3.7-2.8,7.9-7.9,7.9c-1.6,0-3-0.4-4.2-1.2c0.3,0,0.4,0,0.7,0
	c1.3,0,2.5-0.4,3.5-1.2c-1.2,0-2.2-0.9-2.6-1.9c0.2,0,0.3,0.1,0.5,0.1c0.3,0,0.5,0,0.7-0.1c-1.2-0.3-2.2-1.5-2.2-2.8l0,0
	C4,8.5,4.5,8.7,5,8.7C4.2,8.2,3.7,7.3,3.7,6.4C3.7,5.9,3.9,5.4,4,5c1.4,1.6,3.5,2.8,5.7,2.9c0-0.3,0-0.4,0-0.7
	c0-1.6,1.2-2.8,2.8-2.8c0.8,0,1.6,0.3,2.1,0.9c0.6-0.1,1.2-0.3,1.7-0.7c-0.2,0.7-0.7,1.2-1.2,1.6c0.6-0.1,1.1-0.3,1.6-0.4
	C16.3,6.4,15.8,6.8,15.2,7.2z"/>
</svg>
